<svg width="29" height="18" viewBox="0 0 29 18" fill="none" xmlns="http://www.w3.org/2000/svg">
<path d="M1 0H0V2H1V0ZM27 2C27.5523 2 28 1.55228 28 1C28 0.447715 27.5523 0 27 0V2ZM1 2H27V0H1V2Z" fill="#F2F2F2"/>
<path d="M1 8H0V10H1V8ZM20 10C20.5523 10 21 9.55228 21 9C21 8.44772 20.5523 8 20 8V10ZM1 10H20V8H1V10Z" fill="#F2F2F2"/>
<path d="M1.09668 16H0.0966797V18H1.09668V16ZM27.0967 18C27.649 18 28.0967 17.5523 28.0967 17C28.0967 16.4477 27.649 16 27.0967 16V18ZM1.09668 18H27.0967V16H1.09668V18Z" fill="#F2F2F2"/>
</svg>
