<svg width="52" height="48" viewBox="0 0 52 48" fill="none" xmlns="http://www.w3.org/2000/svg">
<g filter="url(#filter0_d_41_42)">
<circle cx="28" cy="20" r="18.5" stroke="#FCBA13" stroke-width="3"/>
<line x1="8" y1="20" x2="14" y2="20" stroke="#242118" stroke-width="8" stroke-linecap="round"/>
<path d="M6 18.5C5.17157 18.5 4.5 19.1716 4.5 20C4.5 20.8284 5.17157 21.5 6 21.5V18.5ZM39.0607 21.0607C39.6464 20.4749 39.6464 19.5251 39.0607 18.9393L29.5147 9.3934C28.9289 8.80761 27.9792 8.80761 27.3934 9.3934C26.8076 9.97919 26.8076 10.9289 27.3934 11.5147L35.8787 20L27.3934 28.4853C26.8076 29.0711 26.8076 30.0208 27.3934 30.6066C27.9792 31.1924 28.9289 31.1924 29.5147 30.6066L39.0607 21.0607ZM6 21.5H38V18.5H6V21.5Z" fill="#FCBA13"/>
</g>
<defs>
<filter id="filter0_d_41_42" x="0" y="0" width="52" height="48" filterUnits="userSpaceOnUse" color-interpolation-filters="sRGB">
<feFlood flood-opacity="0" result="BackgroundImageFix"/>
<feColorMatrix in="SourceAlpha" type="matrix" values="0 0 0 0 0 0 0 0 0 0 0 0 0 0 0 0 0 0 127 0" result="hardAlpha"/>
<feOffset dy="4"/>
<feGaussianBlur stdDeviation="2"/>
<feComposite in2="hardAlpha" operator="out"/>
<feColorMatrix type="matrix" values="0 0 0 0 0 0 0 0 0 0 0 0 0 0 0 0 0 0 0.25 0"/>
<feBlend mode="normal" in2="BackgroundImageFix" result="effect1_dropShadow_41_42"/>
<feBlend mode="normal" in="SourceGraphic" in2="effect1_dropShadow_41_42" result="shape"/>
</filter>
</defs>
</svg>
