<svg width="18" height="18" viewBox="0 0 18 18" fill="none" xmlns="http://www.w3.org/2000/svg">
<g clip-path="url(#clip0_41_37)">
<path d="M16.1911 15.6005L15.1553 3.92714C15.1366 3.69613 14.9429 3.52101 14.7082 3.52101H12.5248C12.521 1.5798 10.9412 0 9.00002 0C7.0588 0 5.47901 1.5798 5.47528 3.52101H3.29188C3.06087 3.52101 2.86713 3.69613 2.84477 3.92714L1.80896 15.6005C1.80896 15.6154 1.80896 15.6266 1.80896 15.6415C1.80896 16.9418 3.00499 18 4.473 18H13.527C14.995 18 16.1911 16.9418 16.1911 15.6415C16.1911 15.6266 16.1911 15.6154 16.1911 15.6005ZM9.00002 0.894225C10.4494 0.894225 11.6268 2.07162 11.6305 3.52101H6.36951C6.37323 2.07162 7.55063 0.894225 9.00002 0.894225ZM13.527 17.102H4.473C3.50426 17.102 2.71436 16.4575 2.70318 15.6564L3.70174 4.41524H5.47528V5.98385C5.47528 6.22977 5.67648 6.43097 5.92239 6.43097C6.16831 6.43097 6.36951 6.22977 6.36951 5.98385V4.41524H11.6305V5.98385C11.6305 6.22977 11.8317 6.43097 12.0776 6.43097C12.3236 6.43097 12.5248 6.22977 12.5248 5.98385V4.41524H14.2983L15.2968 15.6601C15.2857 16.4575 14.4958 17.102 13.527 17.102Z" fill="#F2F2F2"/>
</g>
<defs>
<clipPath id="clip0_41_37">
<rect width="18" height="18" fill="white"/>
</clipPath>
</defs>
</svg>
